<?xml version="1.0" encoding="UTF-8" standalone="no"?>
<!-- Created with Inkscape (http://www.inkscape.org/) -->

<svg
   version="1.1"
   id="svg2"
   width="533.87598"
   height="416.18799"
   viewBox="0 0 533.87597 416.18801"
   sodipodi:docname="logo-dai-color.svg"
   inkscape:version="1.2.1 (9c6d41e410, 2022-07-14)"
   xmlns:inkscape="http://www.inkscape.org/namespaces/inkscape"
   xmlns:sodipodi="http://sodipodi.sourceforge.net/DTD/sodipodi-0.dtd"
   xmlns="http://www.w3.org/2000/svg"
   xmlns:svg="http://www.w3.org/2000/svg">
  <defs
     id="defs6" />
  <sodipodi:namedview
     id="namedview4"
     pagecolor="#505050"
     bordercolor="#ffffff"
     borderopacity="1"
     inkscape:showpageshadow="0"
     inkscape:pageopacity="0"
     inkscape:pagecheckerboard="1"
     inkscape:deskcolor="#505050"
     showgrid="false"
     inkscape:zoom="0.76167935"
     inkscape:cx="53.171981"
     inkscape:cy="-4.5951095"
     inkscape:window-width="4300"
     inkscape:window-height="1771"
     inkscape:window-x="-9"
     inkscape:window-y="-9"
     inkscape:window-maximized="1"
     inkscape:current-layer="g10" />
  <g
     id="g10"
     inkscape:groupmode="layer"
     inkscape:label="Page 1"
     transform="matrix(1.3333333,0,0,1.3333333,-123.42133,-565.48932)">
    <path
       d="m 92.566,424.117 v 311.867 h 94.356 c 10.183,0 19.691,-1.859 28.801,-4.711 l -1.028,3.461 4.387,1.313 1.922,-6.356 c 0.898,-0.343 1.879,-0.527 2.773,-0.851 3.289,-1.434 6.145,-3.246 9.164,-4.938 l -3.285,10.864 4.387,1.312 4.555,-15.25 c 4.89,-3.156 9.359,-6.773 13.492,-10.695 l -7.461,24.629 4.391,1.316 10.425,-34.121 c 5.907,-7.102 11.047,-14.758 14.7,-23.426 0.464,-1.062 0.601,-2.187 1.023,-3.234 h 2.902 l -18.484,59.465 4.387,1.316 18.539,-60.785 h 10.535 l -18.051,59.469 4.012,1.316 18.484,-60.781 h 81.903 l 18.105,60.781 4.387,-1.316 -18.043,-59.469 h 10.582 l 18.492,60.785 3.969,-1.316 -18.051,-59.465 h 10.59 l 18.488,60.781 3.93,-1.312 -17.614,-59.469 h 10.153 l 18.484,60.785 3.969,-1.316 -17.609,-59.465 h 10.589 l 18.043,60.781 4.395,-1.316 -4.34,-14.481 -11.246,-37.359 V 424.324 h -4.055 v 245.11 l -11.187,-37.25 v -207.86 h -4.5 v 192.938 l -58.039,-193.102 -7.516,25.125 -7.461,-25.125 -7.515,25.125 -7.903,-25.125 -7.515,25.125 -7.461,-25.125 -7.512,25.125 -7.461,-25.125 -27.207,90.078 c -0.512,-11.242 -2.691,-22.023 -7.188,-32.093 -4.793,-11.68 -11.554,-21.727 -20.246,-30.114 -8.386,-8.683 -18.433,-15.449 -30.113,-20.246 -11.391,-5.094 -23.687,-7.621 -36.871,-7.621 z m 365.356,296.121 4.496,14.867 V 424.281 h -4.496 z m 15.25,-295.957 v 311.977 h 4.496 V 424.281 Z m 15.305,0 v 311.977 h 4.496 V 424.281 Z m -391.411,4.328 h 11.243 v 10.809 H 97.066 Z m 15.743,0 h 10.754 v 10.809 h -10.754 z m 15.254,0 h 10.804 v 10.809 h -10.804 z m 15.3,0 h 10.754 v 10.809 h -10.754 z m 15.254,0 h 28.305 c 12.586,0 24.269,2.387 35.055,7.188 11.086,4.492 20.711,10.781 28.8,18.871 8.09,8.09 14.52,17.715 19.313,28.801 4.793,10.785 7.183,22.472 7.183,35.054 v 123.102 c 0,12.285 -2.386,23.969 -7.183,35.055 -4.793,10.785 -11.223,20.218 -19.313,28.308 -8.089,8.086 -17.714,14.516 -28.8,19.309 -10.786,4.797 -22.469,7.238 -35.055,7.238 H 158.617 V 720.73 h 28.305 c 11.086,0 21.461,-2.113 31.047,-6.304 9.59,-4.196 17.937,-9.875 25.129,-17.063 7.191,-7.187 12.922,-15.593 17.113,-25.179 4.184,-9.586 6.254,-19.77 6.254,-30.555 V 518.523 c 0,-10.785 -2.051,-21.019 -6.254,-30.609 -4.184,-9.586 -9.922,-17.934 -17.113,-25.125 -7.188,-7.187 -15.539,-12.922 -25.129,-17.113 -9.586,-4.192 -19.961,-6.254 -31.047,-6.254 h -28.305 z m 149.926,10.918 5.27,17.172 -32.043,105.547 v -33.957 z m 14.977,0 5.265,17.172 -5.265,17.664 -5.321,-17.664 z m 14.972,0 5.27,17.172 -5.27,17.664 -4.879,-17.664 z m 15.418,0 4.828,17.172 -4.828,17.664 -5.324,-17.664 z m 14.977,0 51.074,170.938 H 409.863 L 363.566,456.699 Z M 97.066,443.91 h 11.243 v 10.754 H 97.066 Z m 15.743,0 h 10.754 v 10.754 h -10.754 z m 15.254,0 h 10.804 v 10.754 h -10.804 z m 15.3,0 h 10.754 v 10.754 h -10.754 z m 15.254,0 h 28.305 c 10.183,0 19.812,1.922 28.801,5.817 9.289,3.902 17.355,9.289 24.25,16.183 6.886,6.594 12.289,14.52 16.179,23.809 3.883,8.992 5.868,18.613 5.868,28.801 v 123.101 c 0,10.192 -1.961,19.953 -5.868,29.238 -3.882,8.993 -9.293,16.918 -16.179,23.809 -6.895,6.594 -14.961,11.852 -24.25,15.746 -8.989,3.895 -18.618,5.816 -28.801,5.816 h -28.305 v -11.246 h 28.305 c 8.988,0 17.254,-1.644 24.738,-4.933 7.789,-3.297 14.551,-7.805 20.246,-13.496 5.992,-5.692 10.641,-12.399 13.934,-20.188 3.289,-7.793 4.937,-16.054 4.937,-24.742 V 518.523 c 0,-8.683 -1.621,-16.953 -4.937,-24.742 -3.285,-7.793 -7.942,-14.547 -13.934,-20.242 -5.691,-5.984 -12.457,-10.637 -20.246,-13.934 -7.484,-3.304 -15.75,-4.933 -24.738,-4.933 h -28.305 z m -61.551,15.25 h 11.243 v 10.809 H 97.066 Z m 15.743,0 h 10.754 v 10.809 h -10.754 z m 15.254,0 h 10.804 v 10.809 h -10.804 z m 15.3,0 h 10.754 v 10.809 h -10.754 z m 15.254,0 h 28.305 c 8.09,0 15.742,1.645 22.93,4.938 7.191,2.992 13.48,7.23 18.875,12.617 5.39,5.394 9.617,11.683 12.617,18.871 3.285,7.187 4.937,14.844 4.937,22.93 v 123.105 c 0,8.086 -1.664,15.738 -4.937,22.93 -2.989,7.187 -7.227,13.476 -12.617,18.871 -5.395,5.094 -11.684,9.266 -18.875,12.562 -7.188,2.993 -14.84,4.5 -22.93,4.5 h -28.305 v -10.75 h 28.305 c 6.59,0 12.933,-1.218 18.926,-3.621 5.992,-2.703 11.054,-6.113 15.25,-10.308 4.496,-4.492 7.918,-9.617 10.312,-15.305 2.688,-5.988 4.055,-12.281 4.055,-18.871 V 518.527 c 0,-6.593 -1.367,-12.742 -4.055,-18.433 -2.39,-5.985 -5.816,-11.25 -10.312,-15.742 -4.184,-4.489 -9.258,-7.922 -15.25,-10.309 -5.993,-2.699 -12.336,-4.055 -18.926,-4.055 h -28.305 z m 157.387,5.488 5.269,17.172 -38.734,128.641 h -0.769 v -32.527 z m 14.976,0 5.262,17.172 -5.262,17.61 -5.265,-17.61 z m 14.973,0 5.324,17.172 -5.324,17.61 -5.265,-17.61 z m 15.418,0 43.613,145.813 H 394.449 L 356.105,481.82 Z m -264.305,9.821 h 11.243 v 10.754 H 97.066 Z m 15.743,0 h 10.754 v 10.754 h -10.754 z m 15.254,0 h 10.804 v 10.754 h -10.804 z m 15.3,0 h 10.754 v 10.754 h -10.754 z m 15.254,0 h 28.305 c 12.285,0 22.66,4.312 31.047,13.004 8.691,8.386 13.008,18.765 13.008,31.047 v 123.101 c 0,5.988 -1.153,11.668 -3.586,17.063 -2.094,5.093 -5.243,9.746 -9.434,13.933 -3.883,3.899 -8.547,7.039 -13.934,9.438 -5.398,2.105 -11.125,3.183 -17.117,3.183 h -28.304 v -10.804 h 28.304 c 9.289,0 17.078,-3.141 23.367,-9.438 6.59,-6.594 9.93,-14.383 9.93,-23.371 V 518.523 c 0,-9.289 -3.332,-17.078 -9.93,-23.367 -6.289,-6.593 -14.078,-9.926 -23.367,-9.926 h -28.304 z m 164.903,14.867 5.265,17.609 -31.269,103.516 H 286.93 Z m 14.972,0 5.27,17.609 -5.27,17.172 -5.316,-17.172 z m 15.418,0 36.094,121.125 H 379.422 L 348.586,506.945 Z m -256.844,0.848 h 11.243 V 669.953 H 97.066 Z m 15.743,0 h 10.754 v 179.769 h -10.754 z m 15.254,0 h 10.804 v 179.769 h -10.804 z m 15.3,0 h 10.754 v 179.769 h -10.754 z m 15.254,0 h 28.305 c 8.09,0 14.851,2.863 20.242,8.554 5.691,5.395 8.559,12.016 8.559,19.805 v 123.102 c 0,7.793 -2.864,14.55 -8.559,20.242 -5.391,5.394 -12.152,8.066 -20.242,8.066 h -28.305 z m 172.363,24.246 5.262,17.664 -23.75,78.39 h -10.59 z m 14.973,0 29.074,96.054 h -10.582 l -23.754,-78.39 z m -7.461,25.125 21.563,70.929 H 317.32 Z m -52.883,75.32 h 10.59 l -3.586,10.582 H 282.52 Z m 14.981,0 h 10.586 l -3.071,10.582 h -10.589 z m 14.976,0 h 45.805 l 3.074,10.582 h -51.953 z m 50.247,0 h 10.535 l 3.074,10.582 h -10.535 z m 14.976,0 h 10.535 l 3.117,10.582 h -10.589 z m 15.418,0 h 10.094 l 3.117,10.582 h -10.152 z m 14.977,0 h 10.531 l 3.113,10.582 h -10.59 z M 281.77,629.852 h 9.988 l -3.5,11.027 h -6.477 z m 14.429,0 h 10.535 l -3.5,11.027 h -10.148 z m 14.977,0 h 54.637 l 3.074,11.027 h -60.782 z m 59.027,0 h 10.586 l 3.074,11.027 h -10.148 z m 15.414,0 h 10.153 l 3.496,11.027 h -10.582 z m 14.977,0 h 10.59 l 3.074,11.027 h -10.586 z m 14.976,0 h 10.586 l 3.074,11.027 h -10.585 z m -134.183,15.414 h 5.539 l -3.074,10.582 h -3.5 c 0.511,-3.469 0.898,-6.973 1.027,-10.582 z m 10.371,0 h 10.144 l -3.074,10.582 h -10.59 z m 14.976,0 h 63.469 l 3.07,10.582 h -70.05 z m 68.293,0 h 10.153 l 3.5,10.582 h -10.59 z m 14.977,0 h 10.59 l 3.074,10.582 h -10.59 z m 14.98,0 h 10.586 l 3.075,10.582 h -10.586 z m 14.977,0 h 10.59 l 3.07,10.582 H 423.09 Z m -140.055,15.031 h 2.645 l -3.5,10.531 h -2.434 c 1.196,-3.484 2.563,-6.902 3.289,-10.531 z m 7.02,0 h 10.59 l -3.075,10.531 h -10.586 z m 14.976,0 h 72.688 l 3.5,10.531 h -79.27 z m 77.52,0 h 10.582 l 3.074,10.531 h -10.531 z m 15.027,0 h 10.535 l 3.071,10.531 h -10.532 z m 14.977,0 h 10.535 l 3.113,10.531 h -10.148 z m 15.418,0 h 10.094 l 3.585,10.531 H 427.934 Z M 97.063,674.449 h 11.246 v 10.809 H 97.063 Z m 15.746,0 h 10.75 v 10.809 h -10.75 z m 15.25,0 h 10.804 v 10.809 h -10.804 z m 15.304,0 h 10.75 v 10.809 h -10.75 z m -46.3,15.305 h 11.246 v 10.754 H 97.063 Z m 15.746,0 h 10.75 v 10.754 h -10.75 z m 15.25,0 h 10.804 v 10.754 h -10.804 z m 15.304,0 h 10.75 v 10.754 h -10.75 z m -46.3,15.254 h 11.246 V 716.25 H 97.063 Z m 15.746,0 h 10.75 v 11.242 h -10.75 z m 15.25,0 h 10.804 v 11.242 h -10.804 z m 15.304,0 h 10.75 v 11.242 h -10.75 z m -46.3,15.742 h 11.246 v 10.809 H 97.063 Z m 15.746,0 h 10.75 v 10.809 h -10.75 z m 15.25,0 h 10.804 v 10.809 h -10.804 z m 15.304,0 h 10.75 v 10.809 h -10.75 z"
       style="fill:#ffffff;fill-opacity:1;fill-rule:nonzero;stroke:none"
       id="path116" />
  </g>
</svg>
