<?xml version="1.0" encoding="utf-8"?>
<!-- Generator: Adobe Illustrator 24.3.0, SVG Export Plug-In . SVG Version: 6.00 Build 0)  -->
<svg version="1.1"
	 id="svg2" xmlns:inkscape="http://www.inkscape.org/namespaces/inkscape" xmlns:sodipodi="http://sodipodi.sourceforge.net/DTD/sodipodi-0.dtd" xmlns:svg="http://www.w3.org/2000/svg"
	 xmlns="http://www.w3.org/2000/svg" xmlns:xlink="http://www.w3.org/1999/xlink" x="0px" y="0px" viewBox="0 0 533.9 416.2"
	 style="enable-background:new 0 0 533.9 416.2;" xml:space="preserve">
<style type="text/css">
	.st0{fill:#FFFFFF;}
</style>
<sodipodi:namedview  bordercolor="#ffffff" borderopacity="1" id="namedview4" inkscape:current-layer="g10" inkscape:cx="53.171981" inkscape:cy="-4.5951095" inkscape:deskcolor="#505050" inkscape:pagecheckerboard="1" inkscape:pageopacity="0" inkscape:showpageshadow="0" inkscape:window-height="1771" inkscape:window-maximized="1" inkscape:window-width="4300" inkscape:window-x="-9" inkscape:window-y="-9" inkscape:zoom="0.76167935" pagecolor="#505050" showgrid="false">
	<inkscape:page  height="416.18802" id="page8" width="533.87598" x="0" y="0"></inkscape:page>
</sodipodi:namedview>
<g id="g10" transform="matrix(1.3333333,0,0,1.3333333,-123.42133,-565.48932)" inkscape:groupmode="layer" inkscape:label="Page 1">
	<path id="path116" class="st0" d="M92.6,424.1V736h94.4c10.2,0,19.7-1.9,28.8-4.7l-1,3.5l4.4,1.3l1.9-6.4c0.9-0.3,1.9-0.5,2.8-0.9
		c3.3-1.4,6.1-3.2,9.2-4.9l-3.3,10.9l4.4,1.3l4.6-15.2c4.9-3.2,9.4-6.8,13.5-10.7l-7.5,24.6l4.4,1.3l10.4-34.1
		c5.9-7.1,11-14.8,14.7-23.4c0.5-1.1,0.6-2.2,1-3.2h2.9l-18.5,59.5l4.4,1.3l18.5-60.8H293L275,734.8l4,1.3l18.5-60.8h81.9l18.1,60.8
		l4.4-1.3l-18-59.5h10.6l18.5,60.8l4-1.3l-18.1-59.5h10.6l18.5,60.8l3.9-1.3l-17.6-59.5h10.2l18.5,60.8l4-1.3l-17.6-59.5h10.6
		l18,60.8l4.4-1.3l-4.3-14.5l-11.2-37.4V424.3h-4.1v245.1l-11.2-37.2V424.3h-4.5v192.9l-58-193.1l-7.5,25.1l-7.5-25.1l-7.5,25.1
		l-7.9-25.1l-7.5,25.1l-7.5-25.1l-7.5,25.1l-7.5-25.1l-27.2,90.1c-0.5-11.2-2.7-22-7.2-32.1c-4.8-11.7-11.6-21.7-20.2-30.1
		c-8.4-8.7-18.4-15.4-30.1-20.2c-11.4-5.1-23.7-7.6-36.9-7.6L92.6,424.1z M457.9,720.2l4.5,14.9V424.3h-4.5V720.2z M473.2,424.3v312
		h4.5v-312L473.2,424.3z M488.5,424.3v312h4.5v-312L488.5,424.3z M97.1,428.6h11.2v10.8H97.1L97.1,428.6z M112.8,428.6h10.8v10.8
		h-10.8V428.6z M128.1,428.6h10.8v10.8h-10.8V428.6z M143.4,428.6h10.8v10.8h-10.8V428.6z M158.6,428.6h28.3
		c12.6,0,24.3,2.4,35.1,7.2c11.1,4.5,20.7,10.8,28.8,18.9c8.1,8.1,14.5,17.7,19.3,28.8c4.8,10.8,7.2,22.5,7.2,35.1v123.1
		c0,12.3-2.4,24-7.2,35.1c-4.8,10.8-11.2,20.2-19.3,28.3c-8.1,8.1-17.7,14.5-28.8,19.3c-10.8,4.8-22.5,7.2-35.1,7.2h-28.3v-10.8
		h28.3c11.1,0,21.5-2.1,31-6.3c9.6-4.2,17.9-9.9,25.1-17.1c7.2-7.2,12.9-15.6,17.1-25.2c4.2-9.6,6.3-19.8,6.3-30.6V518.5
		c0-10.8-2.1-21-6.3-30.6c-4.2-9.6-9.9-17.9-17.1-25.1c-7.2-7.2-15.5-12.9-25.1-17.1c-9.6-4.2-20-6.3-31-6.3h-28.3L158.6,428.6z
		 M308.5,439.5l5.3,17.2l-32,105.5v-34L308.5,439.5z M323.5,439.5l5.3,17.2l-5.3,17.7l-5.3-17.7L323.5,439.5z M338.5,439.5l5.3,17.2
		l-5.3,17.7l-4.9-17.7L338.5,439.5z M353.9,439.5l4.8,17.2l-4.8,17.7l-5.3-17.7L353.9,439.5z M368.9,439.5L420,610.5h-10.1
		l-46.3-153.8L368.9,439.5z M97.1,443.9h11.2v10.8H97.1V443.9z M112.8,443.9h10.8v10.8h-10.8V443.9z M128.1,443.9h10.8v10.8h-10.8
		V443.9z M143.4,443.9h10.8v10.8h-10.8V443.9z M158.6,443.9h28.3c10.2,0,19.8,1.9,28.8,5.8c9.3,3.9,17.4,9.3,24.2,16.2
		c6.9,6.6,12.3,14.5,16.2,23.8c3.9,9,5.9,18.6,5.9,28.8v123.1c0,10.2-2,20-5.9,29.2c-3.9,9-9.3,16.9-16.2,23.8
		c-6.9,6.6-15,11.9-24.2,15.7c-9,3.9-18.6,5.8-28.8,5.8h-28.3V705h28.3c9,0,17.3-1.6,24.7-4.9c7.8-3.3,14.6-7.8,20.2-13.5
		c6-5.7,10.6-12.4,13.9-20.2c3.3-7.8,4.9-16.1,4.9-24.7V518.5c0-8.7-1.6-17-4.9-24.7c-3.3-7.8-7.9-14.5-13.9-20.2
		c-5.7-6-12.5-10.6-20.2-13.9c-7.5-3.3-15.8-4.9-24.7-4.9h-28.3L158.6,443.9z M97.1,459.2h11.2V470H97.1L97.1,459.2z M112.8,459.2
		h10.8V470h-10.8V459.2z M128.1,459.2h10.8V470h-10.8V459.2z M143.4,459.2h10.8V470h-10.8V459.2z M158.6,459.2h28.3
		c8.1,0,15.7,1.6,22.9,4.9c7.2,3,13.5,7.2,18.9,12.6c5.4,5.4,9.6,11.7,12.6,18.9c3.3,7.2,4.9,14.8,4.9,22.9v123.1
		c0,8.1-1.7,15.7-4.9,22.9c-3,7.2-7.2,13.5-12.6,18.9c-5.4,5.1-11.7,9.3-18.9,12.6c-7.2,3-14.8,4.5-22.9,4.5h-28.3v-10.8h28.3
		c6.6,0,12.9-1.2,18.9-3.6c6-2.7,11.1-6.1,15.2-10.3c4.5-4.5,7.9-9.6,10.3-15.3c2.7-6,4.1-12.3,4.1-18.9V518.5
		c0-6.6-1.4-12.7-4.1-18.4c-2.4-6-5.8-11.2-10.3-15.7c-4.2-4.5-9.3-7.9-15.2-10.3c-6-2.7-12.3-4.1-18.9-4.1h-28.3V459.2z M316,464.6
		l5.3,17.2l-38.7,128.6h-0.8v-32.5L316,464.6z M331,464.6l5.3,17.2l-5.3,17.6l-5.3-17.6L331,464.6z M346,464.6l5.3,17.2l-5.3,17.6
		l-5.3-17.6L346,464.6z M361.4,464.6L405,610.5h-10.5l-38.3-128.6L361.4,464.6z M97.1,474.5h11.2v10.8H97.1L97.1,474.5z
		 M112.8,474.5h10.8v10.8h-10.8V474.5z M128.1,474.5h10.8v10.8h-10.8V474.5z M143.4,474.5h10.8v10.8h-10.8V474.5z M158.6,474.5h28.3
		c12.3,0,22.7,4.3,31,13c8.7,8.4,13,18.8,13,31v123.1c0,6-1.2,11.7-3.6,17.1c-2.1,5.1-5.2,9.7-9.4,13.9c-3.9,3.9-8.5,7-13.9,9.4
		c-5.4,2.1-11.1,3.2-17.1,3.2h-28.3v-10.8h28.3c9.3,0,17.1-3.1,23.4-9.4c6.6-6.6,9.9-14.4,9.9-23.4V518.5c0-9.3-3.3-17.1-9.9-23.4
		c-6.3-6.6-14.1-9.9-23.4-9.9h-28.3L158.6,474.5z M323.5,489.3l5.3,17.6l-31.3,103.5h-10.6L323.5,489.3z M338.5,489.3l5.3,17.6
		l-5.3,17.2l-5.3-17.2L338.5,489.3z M353.9,489.3L390,610.5h-10.6l-30.8-103.5L353.9,489.3z M97.1,490.2h11.2V670H97.1L97.1,490.2z
		 M112.8,490.2h10.8V670h-10.8V490.2z M128.1,490.2h10.8V670h-10.8V490.2z M143.4,490.2h10.8V670h-10.8V490.2z M158.6,490.2h28.3
		c8.1,0,14.9,2.9,20.2,8.6c5.7,5.4,8.6,12,8.6,19.8v123.1c0,7.8-2.9,14.5-8.6,20.2c-5.4,5.4-12.2,8.1-20.2,8.1h-28.3V490.2z
		 M331,514.4l5.3,17.7l-23.8,78.4h-10.6L331,514.4z M346,514.4l29.1,96.1h-10.6l-23.8-78.4L346,514.4z M338.5,539.6l21.6,70.9h-42.7
		L338.5,539.6z M285.6,614.9h10.6l-3.6,10.6h-10.1L285.6,614.9z M300.6,614.9h10.6l-3.1,10.6h-10.6L300.6,614.9z M315.6,614.9h45.8
		l3.1,10.6h-52L315.6,614.9z M365.8,614.9h10.5l3.1,10.6h-10.5L365.8,614.9z M380.8,614.9h10.5l3.1,10.6h-10.6L380.8,614.9z
		 M396.2,614.9h10.1l3.1,10.6h-10.2L396.2,614.9z M411.2,614.9h10.5l3.1,10.6h-10.6L411.2,614.9z M281.8,629.9h10l-3.5,11h-6.5
		L281.8,629.9z M296.2,629.9h10.5l-3.5,11h-10.1L296.2,629.9z M311.2,629.9h54.6l3.1,11h-60.8L311.2,629.9z M370.2,629.9h10.6
		l3.1,11h-10.1L370.2,629.9z M385.6,629.9h10.2l3.5,11h-10.6L385.6,629.9z M400.6,629.9h10.6l3.1,11h-10.6L400.6,629.9z
		 M415.6,629.9h10.6l3.1,11h-10.6L415.6,629.9z M281.4,645.3h5.5l-3.1,10.6h-3.5C280.9,652.4,281.3,648.9,281.4,645.3L281.4,645.3z
		 M291.8,645.3h10.1l-3.1,10.6h-10.6L291.8,645.3z M306.7,645.3h63.5l3.1,10.6h-70.1L306.7,645.3z M375,645.3h10.2l3.5,10.6h-10.6
		L375,645.3z M390,645.3h10.6l3.1,10.6h-10.6L390,645.3z M405,645.3h10.6l3.1,10.6h-10.6L405,645.3z M420,645.3h10.6l3.1,10.6h-10.5
		L420,645.3z M279.9,660.3h2.6l-3.5,10.5h-2.4C277.8,667.3,279.2,663.9,279.9,660.3z M286.9,660.3h10.6l-3.1,10.5h-10.6L286.9,660.3
		z M301.9,660.3h72.7l3.5,10.5h-79.3L301.9,660.3z M379.4,660.3H390l3.1,10.5h-10.5L379.4,660.3z M394.4,660.3H405l3.1,10.5h-10.5
		L394.4,660.3z M409.4,660.3H420l3.1,10.5h-10.1L409.4,660.3z M424.8,660.3h10.1l3.6,10.5h-10.6L424.8,660.3z M97.1,674.4h11.2v10.8
		H97.1V674.4z M112.8,674.4h10.8v10.8h-10.8V674.4z M128.1,674.4h10.8v10.8h-10.8V674.4z M143.4,674.4h10.8v10.8h-10.8V674.4z
		 M97.1,689.8h11.2v10.8H97.1V689.8z M112.8,689.8h10.8v10.8h-10.8V689.8z M128.1,689.8h10.8v10.8h-10.8V689.8z M143.4,689.8h10.8
		v10.8h-10.8V689.8z M97.1,705h11.2v11.2H97.1V705z M112.8,705h10.8v11.2h-10.8V705z M128.1,705h10.8v11.2h-10.8V705z M143.4,705
		h10.8v11.2h-10.8V705z M97.1,720.8h11.2v10.8H97.1V720.8z M112.8,720.8h10.8v10.8h-10.8V720.8z M128.1,720.8h10.8v10.8h-10.8V720.8
		z M143.4,720.8h10.8v10.8h-10.8V720.8z"/>
</g>
</svg>
